<svg xmlns="http://www.w3.org/2000/svg" viewBox="0 0 32 32" width="32" height="32">
  <rect width="32" height="32" rx="7" fill="#0a0a0a"/>
  <path d="M9 7.5h9l4 4v13a1 1 0 0 1-1 1H9a1 1 0 0 1-1-1v-16a1 1 0 0 1 1-1Z" fill="#facc24"/>
  <path d="M18 7.5v3.2a.8.8 0 0 0 .8.8H22" fill="none" stroke="#0a0a0a" stroke-width="1.2"/>
  <rect x="10.5" y="14" width="7" height="1.4" rx="0.7" fill="#0a0a0a" opacity="0.45"/>
  <rect x="10.5" y="17" width="7" height="1.4" rx="0.7" fill="#0a0a0a" opacity="0.45"/>
  <circle cx="20.5" cy="20.5" r="3.6" fill="none" stroke="#facc24" stroke-width="2"/>
  <line x1="23.1" y1="23.1" x2="25.5" y2="25.5" stroke="#facc24" stroke-width="2" stroke-linecap="round"/>
</svg>
